<?xml version="1.0" encoding="UTF-8" standalone="no"?>
<svg xmlns:dc="http://purl.org/dc/elements/1.1/" xmlns:cc="http://creativecommons.org/ns#" xmlns:rdf="http://www.w3.org/1999/02/22-rdf-syntax-ns#" xmlns:svg="http://www.w3.org/2000/svg" xmlns="http://www.w3.org/2000/svg" viewBox="0 0 498.75 115" height="115" width="498.75" xml:space="preserve" version="1.1" id="svg2">
  <metadata id="metadata8"></metadata>
  <defs id="defs6"></defs>
  <g transform="matrix(1.25,0,0,-1.25,0,115)" id="g10">
    <g transform="scale(0.1,0.1)" id="g12">
      <path id="path14" style="fill:#287ac8;fill-opacity:1;fill-rule:nonzero;stroke:none" d="m 231.004,657.52 -97.883,0 L 52.3672,85.5859 8.125,85.5391 87.9297,657.52 l -83.81251,0 5.35156,34.082 83.34375,0 c 9.4925,71.082 23.9175,122.761 43.2265,155.039 28.524,47.785 73.227,71.679 134.141,71.679 36.832,0 71.746,-9.168 104.738,-27.48 l -4.91,-38.738 c -34.774,18.453 -67.141,27.691 -97.145,27.691 -51.394,0 -86.91,-20.027 -106.519,-60.035 -8.914,-18.246 -18.43,-60.965 -28.524,-128.156 l 98.047,0 -4.863,-34.082"></path>
      <path id="path16" style="fill:#287ac8;fill-opacity:1;fill-rule:nonzero;stroke:none" d="m 462.961,261.875 c -43.617,0 -78.762,16.625 -105.457,49.918 -26.691,33.273 -40.027,75.922 -40.027,127.945 0,67.149 15.718,125.403 47.156,174.719 36.488,57.352 86.449,86.035 149.933,86.035 46.86,0 83.254,-16.344 109.207,-49.035 25.954,-32.695 38.942,-77.707 38.942,-135.059 0,-64.503 -16.926,-121.414 -50.727,-170.73 -38.269,-55.871 -87.953,-83.793 -149.027,-83.793 z m 49.777,397.129 c -49.73,0 -88.07,-25.469 -114.996,-76.406 -21.902,-41.403 -32.851,-89.352 -32.851,-143.856 0,-36.652 6.804,-66.887 20.418,-90.691 16.855,-29.797 42.16,-44.688 75.918,-44.688 48.246,0 87.164,25.61 116.773,76.848 24.867,43.18 37.301,90.992 37.301,143.414 0,40.793 -9.192,73.559 -27.528,98.285 -18.359,24.731 -43.363,37.094 -75.035,37.094"></path>
      <path id="path18" style="fill:#287ac8;fill-opacity:1;fill-rule:nonzero;stroke:none" d="m 885.625,582.988 c 31,41.239 51.281,66.614 60.82,76.106 27.711,27.601 55.885,41.398 84.505,41.398 13.41,0 28.01,-2.961 43.83,-8.89 l 0,-45.403 c -17.25,8.52 -32.42,12.805 -45.48,12.805 -19.6,0 -49.308,-18.777 -89.128,-56.309 -39.82,-37.535 -60.938,-65.086 -63.297,-82.636 l -34.867,-249.336 -44.891,0.043 58.828,420.836 44.868,0 -15.188,-108.614"></path>
      <path id="path20" style="fill:#287ac8;fill-opacity:1;fill-rule:nonzero;stroke:none" d="m 1484.25,309.617 c -41,-31.836 -85.27,-47.742 -132.8,-47.742 -55.29,0 -100.16,18.938 -134.61,56.82 -34.47,37.879 -51.7,86.543 -51.7,146.004 0,60.617 16.93,113.938 50.82,160.012 37.14,50.523 85.11,75.781 143.94,75.781 43.96,0 80.06,-15.883 108.3,-47.648 28.23,-31.766 42.35,-71.66 42.35,-119.727 0,-9.215 -0.56,-24.054 -1.65,-44.523 l -294.12,0 c -1.48,-15.512 -2.22,-26.117 -2.22,-31.766 0,-42.07 13.64,-78.168 40.91,-108.289 27.27,-30.121 60.47,-45.176 99.6,-45.176 44.17,0 87.88,18.293 131.18,54.899 l 0,-48.645 z m -18.32,218.985 c -0.3,39.757 -9.95,71.429 -28.96,95.023 -19.03,23.57 -45.01,35.379 -77.97,35.379 -32.09,0 -61.66,-12.922 -88.68,-38.738 -27.03,-25.813 -43.36,-56.375 -49.01,-91.664 l 244.62,0"></path>
      <path id="path22" style="fill:#231f20;fill-opacity:1;fill-rule:nonzero;stroke:none" d="m 1724.27,350.625 c 24,-14.227 64.9,-30.23 104.02,-30.23 56.01,0 82.68,27.558 82.68,64.019 0,37.34 -22.23,57.789 -79.13,79.125 -78.23,28.453 -114.68,70.242 -114.68,121.813 0,69.347 56.9,126.25 148.47,126.25 43.56,0 81.79,-11.559 104.91,-26.676 l -18.68,-56.012 c -16.89,9.781 -48,24.895 -88.01,24.895 -46.23,0 -71.12,-26.676 -71.12,-58.68 0,-36.453 24.89,-52.457 80.9,-73.797 73.79,-27.562 112.91,-64.906 112.91,-129.809 0,-76.46 -59.57,-129.808 -160.03,-129.808 -47.12,0 -90.68,12.449 -120.91,30.23 l 18.67,58.68"></path>
      <path id="path24" style="fill:#231f20;fill-opacity:1;fill-rule:nonzero;stroke:none" d="m 2186.56,780.949 c -29.33,0 -48.9,23.117 -48.9,50.68 0,27.562 20.45,49.789 50.68,49.789 30.23,0 49.79,-22.227 49.79,-49.789 0,-27.563 -19.56,-50.68 -50.68,-50.68 l -0.89,0 z m -37.34,-509.453 0,430.324 78.24,0 0,-430.324 -78.24,0"></path>
      <path id="path26" style="fill:#231f20;fill-opacity:1;fill-rule:nonzero;stroke:none" d="m 2513.72,804.957 0,-103.137 112.01,0 0,-59.57 -112.01,0 0,-232.055 c 0,-53.343 15.12,-83.574 58.67,-83.574 21.34,0 33.79,1.777 45.35,5.332 l 3.55,-59.57 c -15.11,-5.332 -39.11,-10.668 -69.34,-10.668 -36.45,0 -65.79,12.449 -84.46,32.894 -21.33,24.008 -30.22,62.243 -30.22,112.918 l 0,234.723 -66.68,0 0,59.57 66.68,0 0,79.129 76.45,24.008"></path>
      <path id="path28" style="fill:#231f20;fill-opacity:1;fill-rule:nonzero;stroke:none" d="m 2815.1,473.32 c 1.78,-105.8 68.45,-149.371 146.69,-149.371 56.01,0 90.68,9.781 119.13,21.344 l 14.22,-55.129 c -27.56,-12.445 -75.56,-27.562 -144.02,-27.562 -131.58,0 -211.59,88.023 -211.59,216.945 0,130.695 77.35,232.941 202.7,232.941 140.47,0 176.91,-123.582 176.91,-202.715 0,-16.003 -0.88,-28.453 -2.66,-37.339 l -301.38,0.886 z m 228.48,56.016 c 0.89,48.898 -20.45,127.141 -107.58,127.141 -80.01,0 -113.79,-72.911 -120.02,-127.141 l 227.6,0"></path>
      <path id="path30" style="fill:#287ac8;fill-opacity:1;fill-rule:nonzero;stroke:none" d="m 3239.38,166.887 c 44.83,56.277 79.75,122.574 104.78,198.832 25.03,76.301 37.52,154.543 37.52,234.797 0,82.718 -14.89,156.168 -44.68,220.355 l 31.18,0 C 3416.05,729.785 3440,639.25 3440,549.313 c 0,-68.696 -16.15,-136.977 -48.46,-204.77 -25.55,-53.555 -64.39,-112.773 -116.59,-177.656 l -35.57,0"></path>
      <path id="path32" style="fill:#287ac8;fill-opacity:1;fill-rule:nonzero;stroke:none" d="m 3561.84,212.914 c 37.01,46.449 65.81,101.125 86.44,164.059 20.65,62.929 30.99,127.492 30.99,193.687 0,68.246 -12.32,128.82 -36.89,181.785 l 25.72,0 c 39.5,-75.148 59.24,-149.812 59.24,-224.027 0,-56.68 -13.29,-112.988 -39.95,-168.941 -21.06,-44.192 -53.14,-93.032 -96.18,-146.563 l -29.37,0"></path>
      <path id="path34" style="fill:#287ac8;fill-opacity:1;fill-rule:nonzero;stroke:none" d="m 3853.3,258.945 c 29.16,36.586 51.85,79.672 68.1,129.231 16.28,49.609 24.4,100.465 24.4,152.633 0,53.765 -9.68,101.5 -29.05,143.222 l 20.27,0 c 31.14,-59.218 46.68,-118.058 46.68,-176.511 0,-44.672 -10.52,-89.036 -31.52,-133.086 -16.59,-34.809 -41.82,-73.317 -75.76,-115.489 l -23.12,0"></path>
      <path id="path36" style="fill:#231f20;fill-opacity:1;fill-rule:nonzero;stroke:none" d="m 1345.68,39.7266 -4.58,0.0078 -20.97,95.6956 -51.99,-95.7073 -4.8,0.0039 -29.76,117.8044 10.32,0 24.02,-96.613 52.9,96.613 4.32,0 21.26,-96.9841 55.33,96.9841 10.64,0 -66.69,-117.8044"></path>
      <path id="path38" style="fill:#231f20;fill-opacity:1;fill-rule:nonzero;stroke:none" d="m 1481.44,48.3945 c -8.83,-5.7773 -18.36,-8.6679 -28.6,-8.6679 -11.89,0 -21.56,3.4414 -28.98,10.3242 -7.42,6.875 -11.13,15.7148 -11.13,26.5117 0,11 3.65,20.6836 10.94,29.0545 7.99,9.168 18.33,13.758 31,13.758 9.47,0 17.24,-2.859 23.32,-8.578 6.07,-5.719 9.11,-12.9064 9.11,-21.5587 0,-1.6563 -0.22,-4.332 -0.66,-8.0195 l -63.23,0 c -0.32,-2.8243 -0.48,-4.754 -0.48,-5.7813 0,-7.6523 2.95,-14.2227 8.84,-19.7031 5.89,-5.4883 13.07,-8.2266 21.52,-8.2266 9.55,0 19,3.2344 28.35,9.711 l 0,-8.8243 z m -4.26,39.8633 c -0.06,7.1133 -2.13,12.7812 -6.2,17.0082 -4.07,4.218 -9.63,6.332 -16.69,6.332 -6.86,0 -13.19,-2.309 -18.98,-6.93 -5.79,-4.617 -9.28,-10.0899 -10.49,-16.4102 l 52.36,0"></path>
      <path id="path40" style="fill:#231f20;fill-opacity:1;fill-rule:nonzero;stroke:none" d="m 1647.88,39.7266 c -15.03,0 -26.82,4.3281 -35.36,12.9726 -8.54,8.6485 -12.82,20.4102 -12.82,35.2813 0,18.2145 5.37,34.1325 16.13,47.7615 12.28,15.512 28.7,23.274 49.24,23.274 14.77,0 26.47,-4.27 35.07,-12.817 8.61,-8.543 12.91,-19.976 12.91,-34.301 0,-18.1636 -5.37,-34.2222 -16.12,-48.1636 -12.35,-16.0078 -28.7,-24.0078 -49.05,-24.0078 z m 17.21,111.1364 c -17.84,0 -31.76,-7.453 -41.77,-22.359 -8.34,-12.402 -12.5,-26.766 -12.5,-43.0899 0,-11.9102 3.25,-21.1485 9.76,-27.6993 6.51,-6.5585 15.83,-9.8359 27.96,-9.8359 17.89,0 31.72,7.5586 41.47,22.6875 7.95,12.3477 11.93,26.7891 11.93,43.3286 0,11.207 -3.3,20.171 -9.91,26.89 -6.61,6.715 -15.59,10.078 -26.94,10.078"></path>
      <path id="path42" style="fill:#231f20;fill-opacity:1;fill-rule:nonzero;stroke:none" d="m 1772.27,114.164 c 7.61,3.477 14.82,5.211 21.66,5.211 10.99,0 19.82,-3.262 26.5,-9.781 6.68,-6.524 10.02,-15.0432 10.02,-25.5667 0,-14.121 -5.45,-24.9062 -16.34,-32.3671 -10.89,-7.461 -26.38,-11.1914 -46.43,-11.1914 -2.37,0 -4.79,-0.0157 -7.27,-0.0625 l -6.45,-36.64067 -9.76,0.02734 16.18,97.53503 c -2.29,-1.7382 -5.05,-4.3866 -8.29,-7.953 -3.68,-4.0586 -6.38,-6.8203 -8.09,-8.2773 l -1.71,1.8632 c 0.06,3.1329 2.52,7.1602 7.37,12.0821 3.83,3.891 7.82,7.152 11.97,9.805 l 4.07,24.605 9.76,-0.031 -3.19,-19.258 z m -11.23,-67.746 c 7.88,-0.0157 12.59,-0.0196 14.13,-0.0196 13.71,0 24.69,3.5352 32.92,10.6055 8.24,7.0781 12.36,16.3828 12.36,27.9219 0,7.9492 -2.67,14.3906 -8,19.3012 -5.33,4.91 -12.36,7.371 -21.1,7.371 -6.55,0 -13.3,-1.465 -20.23,-4.383 l -10.08,-60.797"></path>
      <path id="path44" style="fill:#231f20;fill-opacity:1;fill-rule:nonzero;stroke:none" d="m 1934.62,48.3945 c -8.83,-5.7773 -18.37,-8.6679 -28.6,-8.6679 -11.9,0 -21.56,3.4414 -28.98,10.3242 -7.42,6.875 -11.13,15.7148 -11.13,26.5117 0,11 3.64,20.6836 10.93,29.0545 8,9.168 18.34,13.758 31.01,13.758 9.47,0 17.24,-2.859 23.31,-8.578 6.08,-5.719 9.12,-12.9064 9.12,-21.5587 0,-1.6563 -0.22,-4.332 -0.66,-8.0195 l -63.23,0 c -0.32,-2.8243 -0.48,-4.754 -0.48,-5.7813 0,-7.6523 2.94,-14.2227 8.84,-19.7031 5.89,-5.4883 13.07,-8.2266 21.52,-8.2266 9.55,0 19,3.2344 28.35,9.711 l 0,-8.8243 z m -4.26,39.8633 c -0.06,7.1133 -2.13,12.7812 -6.2,17.0082 -4.07,4.218 -9.64,6.332 -16.69,6.332 -6.86,0 -13.19,-2.309 -18.98,-6.93 -5.79,-4.617 -9.28,-10.0899 -10.49,-16.4102 l 52.36,0"></path>
      <path id="path46" style="fill:#231f20;fill-opacity:1;fill-rule:nonzero;stroke:none" d="m 1992.54,105.184 0.12,-0.231 -0.58,0 c 11.38,9.613 22.87,14.422 34.44,14.422 6.65,0 12.14,-2.09 16.5,-6.266 4.35,-4.179 6.52,-9.375 6.52,-15.5777 0,-7.7149 -1.11,-17.129 -3.33,-28.2344 l -5.66,-28.086 -9.46,-0.0312 5.4,28.6094 c 2.28,11.1718 3.42,20.6757 3.42,28.5156 0,3.8673 -1.44,7.0473 -4.32,9.5473 -2.88,2.496 -6.65,3.746 -11.31,3.746 -6.01,0 -12.15,-1.762 -18.41,-5.282 -3.97,-2.238 -8.95,-5.89 -14.96,-10.9566 l -9.02,-54.1797 -9.77,0.0312 12.77,76.6841 9.77,-0.028 -2.12,-12.683"></path>
      <path id="path48" style="fill:#231f20;fill-opacity:1;fill-rule:nonzero;stroke:none" d="m 2209.68,111.598 -23.79,0 -6.88,-26.0277 c -2.55,-9.6523 -3.82,-18.4414 -3.82,-26.3672 0,-3.9336 1.27,-7.1172 3.8,-9.5429 2.54,-2.4258 5.9,-3.6329 10.08,-3.6329 5.07,0 10.95,2.2969 17.63,6.8985 l 0,-7.8555 c -7.55,-3.5586 -14.16,-5.3437 -19.84,-5.3437 -6.34,0 -11.53,1.957 -15.59,5.8711 -4.06,3.914 -6.08,8.8164 -6.08,14.707 0,7.3437 1.33,15.9609 3.98,25.8476 0.58,2.0938 2.94,10.5782 7.1,25.4457 l -17.75,0 1.05,6.297 17.66,0 4.13,17.41 9.89,-0.047 -4.12,-17.363 23.6,0 -1.05,-6.297"></path>
      <path id="path50" style="fill:#231f20;fill-opacity:1;fill-rule:nonzero;stroke:none" d="m 2252.34,102.27 0.27,-0.157 -0.3,-0.043 c 12.65,11.535 24.45,17.305 35.39,17.305 6.74,0 12.31,-1.902 16.69,-5.707 4.39,-3.801 6.59,-8.609 6.59,-14.4336 0,-7.8281 -1.16,-17.5039 -3.48,-29.0469 l -5.86,-28.9766 -9.45,-0.0312 5.58,29.5 c 2.14,11.5391 3.21,21.3984 3.21,29.5583 0,3.219 -1.47,5.918 -4.4,8.094 -2.93,2.176 -6.4,3.266 -10.4,3.266 -6.57,0 -13.13,-2.164 -19.69,-6.485 -1.15,-0.754 -6.4,-4.937 -15.76,-12.5661 l -8.52,-51.3672 -9.76,0.0312 19.29,116.3201 9.77,-0.027 -9.17,-55.234"></path>
      <path id="path52" style="fill:#231f20;fill-opacity:1;fill-rule:nonzero;stroke:none" d="m 2415.32,48.3945 c -8.83,-5.7773 -18.36,-8.6679 -28.6,-8.6679 -11.9,0 -21.56,3.4414 -28.98,10.3242 -7.42,6.875 -11.13,15.7148 -11.13,26.5117 0,11 3.64,20.6836 10.94,29.0545 8,9.168 18.33,13.758 31,13.758 9.47,0 17.24,-2.859 23.32,-8.578 6.08,-5.719 9.11,-12.9064 9.11,-21.5587 0,-1.6563 -0.22,-4.332 -0.66,-8.0195 l -63.23,0 c -0.32,-2.8243 -0.48,-4.754 -0.48,-5.7813 0,-7.6523 2.94,-14.2227 8.84,-19.7031 5.89,-5.4883 13.07,-8.2266 21.52,-8.2266 9.55,0 19,3.2344 28.35,9.711 l 0,-8.8243 z m -4.26,39.8633 c -0.06,7.1133 -2.13,12.7812 -6.2,17.0082 -4.07,4.218 -9.63,6.332 -16.69,6.332 -6.87,0 -13.19,-2.309 -18.98,-6.93 -5.79,-4.617 -9.28,-10.0899 -10.49,-16.4102 l 52.36,0"></path>
      <path id="path54" style="fill:#231f20;fill-opacity:1;fill-rule:nonzero;stroke:none" d="m 2598.06,144.336 c -9.51,4.355 -17.19,6.527 -23.07,6.527 -6.72,0 -12.58,-2.16 -17.59,-6.492 -5.01,-4.332 -7.51,-9.383 -7.51,-15.152 0,-7.192 4.03,-13.621 12.11,-19.285 4.73,-3.379 11.86,-8.446 21.4,-15.1918 7.78,-6.7031 11.68,-14.5352 11.68,-23.4961 0,-9.0781 -3.7,-16.6016 -11.1,-22.5703 -7.39,-5.9649 -16.57,-8.9492 -27.52,-8.9492 -4.48,0 -9.51,0.7734 -15.08,2.3047 -5.57,1.5429 -10.02,3.4453 -13.35,5.7148 l 2.6,8.4219 c 10.46,-5.5274 19.02,-8.2891 25.7,-8.2891 8.28,0 14.96,2.1445 20.03,6.4414 5.07,4.2969 7.6,10.0039 7.6,17.125 0,7.4414 -3.83,14.1445 -11.48,20.1133 -4.85,3.375 -11.98,8.5464 -21.41,15.5234 -7.95,5.957 -11.93,12.988 -11.93,21.094 0,9.285 3.57,16.746 10.72,22.383 7.14,5.636 16.52,8.457 28.12,8.457 3.72,0 7.88,-0.684 12.5,-2.039 4.61,-1.36 8.01,-2.934 10.2,-4.727 l -2.62,-7.914"></path>
      <path id="path56" style="fill:#231f20;fill-opacity:1;fill-rule:nonzero;stroke:none" d="m 2663.83,39.7266 c -9.41,0 -16.99,3.0234 -22.74,9.0664 -5.76,6.0429 -8.64,13.789 -8.64,23.2343 0,12.1915 3.39,22.7657 10.17,31.7267 7.87,10.41 18.64,15.621 32.34,15.621 10.1,0 17.95,-2.969 23.55,-8.902 5.6,-5.938 8.4,-14.1136 8.4,-24.5238 0,-11.7187 -3.65,-22.0508 -10.94,-31.0039 -8.26,-10.1484 -18.97,-15.2187 -32.14,-15.2187 z m 10.77,71.8714 c -10.81,0 -19.15,-4.59 -25.01,-13.7699 -4.76,-7.4609 -7.14,-16.1054 -7.14,-25.9218 0,-6.6055 1.48,-12.0508 4.44,-16.3477 3.67,-5.3711 9.18,-8.0508 16.51,-8.0508 10.49,0 18.96,4.6133 25.39,13.8438 5.41,7.7812 8.12,16.4023 8.12,25.8476 0,7.3516 -2,13.2538 -5.99,17.7108 -3.99,4.457 -9.43,6.688 -16.32,6.688"></path>
      <path id="path58" style="fill:#231f20;fill-opacity:1;fill-rule:nonzero;stroke:none" d="m 2798.99,54.8125 c -11.08,-10.0781 -22.56,-15.1133 -34.46,-15.1133 -6.68,0 -12.11,1.8125 -16.28,5.4297 -4.17,3.6172 -6.25,8.2344 -6.25,13.8516 0,7.9961 1.18,17.8515 3.55,29.5742 l 5.95,29.3123 9.82,-0.051 -5.77,-28.4176 c -2.61,-11.7148 -3.92,-21.1523 -3.92,-28.2929 0,-3.875 1.48,-7.1172 4.45,-9.7188 2.96,-2.6054 6.69,-3.9062 11.15,-3.9062 10.09,0 21.25,5.9258 33.5,17.7773 l 8.76,52.6372 9.76,-0.028 -12.76,-76.6873 -9.77,0.0312 2.27,13.6016"></path>
      <path id="path60" style="fill:#231f20;fill-opacity:1;fill-rule:nonzero;stroke:none" d="m 2869.38,98.0703 c 6.66,7.4767 11.01,12.0747 13.07,13.7967 5.94,5.004 12,7.508 18.15,7.508 2.88,0 6.01,-0.535 9.41,-1.609 l 0,-8.196 c -3.7,1.348 -6.96,2.028 -9.77,2.028 -4.21,0 -10.6,-3.375 -19.15,-10.121 -8.55,-6.7465 -13.09,-11.6957 -13.6,-14.8559 l -7.51,-45.4414 -9.75,0.0312 12.66,76.6841 9.77,0 -3.28,-19.8247"></path>
      <path id="path62" style="fill:#231f20;fill-opacity:1;fill-rule:nonzero;stroke:none" d="m 2998.89,109.086 c -5.97,1.422 -12.61,2.141 -19.93,2.141 -11.23,0 -20.72,-3.75 -28.48,-11.2426 -7.77,-7.4883 -11.64,-16.4453 -11.64,-26.8633 0,-7.6797 2.7,-13.8672 8.13,-18.5703 5.42,-4.6992 12.66,-7.043 21.7,-7.043 6.87,0 15.6,2.1016 26.19,6.3086 l -1.54,-8.7461 c -8.64,-3.5586 -17.56,-5.3437 -26.77,-5.3437 -11.33,0 -20.44,3.1562 -27.35,9.4726 -6.91,6.3086 -10.37,14.5391 -10.37,24.6875 0,13 5.08,23.836 15.26,32.4923 10.18,8.66 22.94,12.996 38.29,12.996 5.57,0 11.58,-0.535 18.05,-1.609 l -1.54,-8.68"></path>
      <path id="path64" style="fill:#231f20;fill-opacity:1;fill-rule:nonzero;stroke:none" d="m 3096.75,48.3945 c -8.84,-5.7773 -18.37,-8.6679 -28.6,-8.6679 -11.9,0 -21.57,3.4414 -28.99,10.3242 -7.42,6.875 -11.13,15.7148 -11.13,26.5117 0,11 3.65,20.6836 10.94,29.0545 8,9.168 18.33,13.758 31,13.758 9.47,0 17.24,-2.859 23.32,-8.578 6.08,-5.719 9.12,-12.9064 9.12,-21.5587 0,-1.6563 -0.22,-4.332 -0.66,-8.0195 l -63.23,0 c -0.33,-2.8243 -0.48,-4.754 -0.48,-5.7813 0,-7.6523 2.94,-14.2227 8.84,-19.7031 5.89,-5.4883 13.06,-8.2266 21.52,-8.2266 9.54,0 18.99,3.2344 28.35,9.711 l 0,-8.8243 z m -4.26,39.8633 c -0.07,7.1133 -2.13,12.7812 -6.2,17.0082 -4.08,4.218 -9.64,6.332 -16.7,6.332 -6.86,0 -13.18,-2.309 -18.97,-6.93 -5.79,-4.617 -9.29,-10.0899 -10.49,-16.4102 l 52.36,0"></path>
    </g>
  </g>
</svg>
